<?xml version="1.0" encoding="UTF-8" standalone="no"?>
<!-- Created with Inkscape (http://www.inkscape.org/) -->

<svg
   xmlns:dc="http://purl.org/dc/elements/1.1/"
   xmlns:cc="http://creativecommons.org/ns#"
   xmlns:rdf="http://www.w3.org/1999/02/22-rdf-syntax-ns#"
   xmlns:svg="http://www.w3.org/2000/svg"
   xmlns="http://www.w3.org/2000/svg"
   xmlns:sodipodi="http://sodipodi.sourceforge.net/DTD/sodipodi-0.dtd"
   xmlns:inkscape="http://www.inkscape.org/namespaces/inkscape"
   width="500"
   height="160"
   id="svg3075"
   version="1.1"
   inkscape:version="0.48.2 r9819"
   inkscape:export-filename="/home/alfem/alfem/prog/gamespit/games/mad-body/images/body2.png"
   inkscape:export-xdpi="90"
   inkscape:export-ydpi="90"
   sodipodi:docname="body2.svg">
  <defs
     id="defs3077" />
  <sodipodi:namedview
     id="base"
     pagecolor="#ffffff"
     bordercolor="#666666"
     borderopacity="1.0"
     inkscape:pageopacity="0.0"
     inkscape:pageshadow="2"
     inkscape:zoom="1.4"
     inkscape:cx="279.59184"
     inkscape:cy="84.998266"
     inkscape:document-units="px"
     inkscape:current-layer="layer1"
     showgrid="false"
     inkscape:window-width="1366"
     inkscape:window-height="714"
     inkscape:window-x="0"
     inkscape:window-y="0"
     inkscape:window-maximized="1" />
  <metadata
     id="metadata3080">
    <rdf:RDF>
      <cc:Work
         rdf:about="">
        <dc:format>image/svg+xml</dc:format>
        <dc:type
           rdf:resource="http://purl.org/dc/dcmitype/StillImage" />
        <dc:title></dc:title>
      </cc:Work>
    </rdf:RDF>
  </metadata>
  <g
     inkscape:label="Capa 1"
     inkscape:groupmode="layer"
     id="layer1"
     transform="translate(0,-892.36218)">
    <path
       style="fill:#fdf396;fill-opacity:1;stroke:#000000;stroke-width:2;stroke-linecap:butt;stroke-linejoin:miter;stroke-miterlimit:4;stroke-opacity:1;stroke-dasharray:none"
       d="m 328.13139,1004.3317 -14.77163,12.1192 c -7.0354,5.7721 1.73534,14.8011 3.89929,16.1527 l 4.98248,-13.4545 c -1.19307,7.113 -4.1273,11.6528 -5.75731,17.5329 0,0 -4.0305,0.8614 -4.53942,4.3087 -0.50887,3.4473 3.43363,5.344 3.43363,5.344 3.65939,1.0846 5.24729,4.8297 10.30179,-1.1163 l 6.58781,-14.2384 -6.90112,15.7063 c 0,0 -2.52728,0.2175 -1.65173,2.7227 0.87574,2.5053 7.38205,3.26 7.38205,3.26 6.57928,-8.6269 2.15139,-3.7129 7.61271,-15.484 0,0 -5.98372,12.6919 -5.49357,14.1908 0.48992,1.4989 3.90581,1.358 3.90581,1.358 l 8.88341,-14.4204 c 0,0 -8.7433,12.1014 -7.80952,13.4105 0.93378,1.3089 4.59479,1.6564 4.59479,1.6564 5.01861,-11.2538 10.05217,-14.6403 13.78795,-33.135 -0.0887,-3.561 -1.83322,-5.4027 -2.83852,-8.012 z"
       id="path3880-0-1"
       inkscape:connector-curvature="0"
       sodipodi:nodetypes="csccczcccczcczcczcccc" />
    <path
       style="fill:#fdfaff;fill-opacity:1;stroke:#000000;stroke-width:2;stroke-linecap:butt;stroke-linejoin:miter;stroke-miterlimit:4;stroke-opacity:1;stroke-dasharray:none"
       d="m 225.10464,893.8572 c -9.07454,0.77385 -18.14907,1.15568 -27.22361,3.18198 -26.71008,8.70593 -53.54595,17.16029 -73.76154,38.85521 -3.15187,12.75657 -4.1196,31.75353 2,71.00001 l 30,-3 c -1.49403,-18.33334 -3.97929,-36.66668 -3,-55.00001 l 44,-20 c -6.65872,41.80839 -5.57222,83.21741 -3,123.70711 l 114,0.2929 c -0.53749,-42.3334 -0.42102,-84.66668 -10,-127.00001 23.74476,24.78095 28.02787,43.56512 27.85715,78.28571 l 39.28571,12.8571 c 1.0884,-34.26184 -15.62541,-95.42144 -61.14286,-119.64281 -3.6841,-1.80703 -16.48552,-2.52588 -29.5,-3 z"
       id="path3878"
       inkscape:connector-curvature="0"
       sodipodi:nodetypes="ccccccccccccccc" />
    <path
       style="fill:#fdf396;fill-opacity:1;stroke:#000000;stroke-width:2;stroke-linecap:butt;stroke-linejoin:miter;stroke-miterlimit:4;stroke-opacity:1;stroke-dasharray:none"
       d="m 154.53607,1003.7101 12.34496,14.5836 c 5.87955,6.9458 -4.3751,14.2459 -6.74726,15.1853 l -2.47547,-14.1324 c -0.10866,7.2116 1.95908,12.206 2.50237,18.2835 0,0 3.80917,1.5739 3.6883,5.0565 -0.12087,3.4825 -4.34071,4.6375 -4.34071,4.6375 -3.79493,0.4071 -6.03196,3.8046 -9.93182,-2.9551 l -3.9131,-15.1928 3.95672,16.6931 c 0,0 2.44664,0.6695 1.13386,2.9759 -1.31279,2.3065 -7.84884,1.8758 -7.84884,1.8758 -4.91635,-9.6717 -1.44678,-4.0399 -4.6967,-16.6027 0,0 3.5977,13.5626 2.84538,14.9486 -0.75233,1.3859 -4.0866,0.6317 -4.0866,0.6317 l -6.13834,-15.7856 c 0,0 6.41855,13.4793 5.26412,14.5986 -1.15443,1.1192 -4.81814,0.801 -4.81814,0.801 -2.9077,-11.9741 -7.24828,-16.2125 -7.58884,-35.0777 0.72921,-3.4866 2.7771,-4.9838 4.23636,-7.3691 z"
       id="path3880-0"
       inkscape:connector-curvature="0"
       sodipodi:nodetypes="csccczcccczcczcczcccc" />
    <text
       xml:space="preserve"
       style="font-size:62.15818787px;font-style:normal;font-weight:bold;line-height:125%;letter-spacing:0px;word-spacing:0px;fill:#000000;fill-opacity:1;stroke:none;font-family:Sans;-inkscape-font-specification:Sans Bold"
       x="211.27661"
       y="1026.8354"
       id="text6646"
       sodipodi:linespacing="125%"
       transform="scale(1.0555366,0.94738543)"><tspan
         sodipodi:role="line"
         id="tspan6648"
         x="211.27661"
         y="1026.8354">G</tspan></text>
  </g>
</svg>
