<?xml version="1.0" encoding="UTF-8" standalone="no"?>
<!-- Created with Inkscape (http://www.inkscape.org/) -->

<svg
   xmlns:dc="http://purl.org/dc/elements/1.1/"
   xmlns:cc="http://creativecommons.org/ns#"
   xmlns:rdf="http://www.w3.org/1999/02/22-rdf-syntax-ns#"
   xmlns:svg="http://www.w3.org/2000/svg"
   xmlns="http://www.w3.org/2000/svg"
   xmlns:sodipodi="http://sodipodi.sourceforge.net/DTD/sodipodi-0.dtd"
   xmlns:inkscape="http://www.inkscape.org/namespaces/inkscape"
   width="297mm"
   height="210mm"
   id="svg2985"
   version="1.1"
   inkscape:version="0.48.2 r9819"
   sodipodi:docname="Nuevo documento 2">
  <defs
     id="defs2987" />
  <sodipodi:namedview
     inkscape:document-units="px"
     pagecolor="#ffffff"
     bordercolor="#666666"
     borderopacity="1.0"
     inkscape:pageopacity="0.0"
     inkscape:pageshadow="2"
     inkscape:zoom="0.70710678"
     inkscape:cx="545.22898"
     inkscape:cy="392.41639"
     inkscape:current-layer="layer2"
     id="namedview2989"
     showgrid="false"
     units="mm"
     showguides="true"
     inkscape:guide-bbox="true"
     inkscape:window-width="1366"
     inkscape:window-height="714"
     inkscape:window-x="0"
     inkscape:window-y="0"
     inkscape:window-maximized="1" />
  <metadata
     id="metadata2991">
    <rdf:RDF>
      <cc:Work
         rdf:about="">
        <dc:format>image/svg+xml</dc:format>
        <dc:type
           rdf:resource="http://purl.org/dc/dcmitype/StillImage" />
        <dc:title></dc:title>
      </cc:Work>
    </rdf:RDF>
  </metadata>
  <g
     inkscape:label="Layer 1"
     inkscape:groupmode="layer"
     id="layer1">
    <g
       id="g3821"
       sodipodi:insensitive="true">
      <rect
         y="63.378342"
         x="276.47388"
         height="149.41446"
         width="499.41446"
         id="rect2994"
         style="fill:none;stroke:#000100;stroke-width:0.58553237;stroke-linejoin:round;stroke-miterlimit:4;stroke-opacity:1;stroke-dasharray:none" />
      <rect
         y="212.86189"
         x="276.48346"
         height="159.39523"
         width="499.39523"
         id="rect2994-9"
         style="fill:none;stroke:#000100;stroke-width:0.60476118;stroke-linejoin:round;stroke-miterlimit:4;stroke-opacity:1;stroke-dasharray:none" />
      <rect
         y="372.30283"
         x="276.51923"
         height="199.32378"
         width="499.32376"
         id="rect2994-9-2"
         style="fill:none;stroke:#000100;stroke-width:0.67623043;stroke-linejoin:round;stroke-miterlimit:4;stroke-opacity:1;stroke-dasharray:none" />
      <rect
         y="208.00751"
         x="501.56076"
         height="9.2406416"
         width="49.240643"
         id="rect3801"
         style="fill:none;stroke:#000100;stroke-width:0.75935858;stroke-linejoin:round;stroke-miterlimit:4;stroke-opacity:1;stroke-dasharray:none" />
      <rect
         y="368.02744"
         x="476.71051"
         height="8.941185"
         width="98.941185"
         id="rect3801-2"
         style="fill:none;stroke:#000100;stroke-width:1.058815;stroke-linejoin:round;stroke-miterlimit:4;stroke-opacity:1;stroke-dasharray:none" />
    </g>
  </g>
  <g
     inkscape:groupmode="layer"
     id="layer2"
     inkscape:label="Figure">
    <path
       style="fill:#be8206;fill-opacity:1;stroke:#000000;stroke-width:1px;stroke-linecap:butt;stroke-linejoin:miter;stroke-opacity:1"
       d="m 514.06663,535.14442 c 4.66528,-0.2934 4.50653,10.02603 4.59619,19.79899 -22.86312,0.93963 -45.72623,1.16548 -68.58935,-0.7071 -4.99432,-10.08882 4.45012,-18.9593 26.5165,-22.62742 z"
       id="path3910"
       inkscape:connector-curvature="0"
       sodipodi:nodetypes="ccccc" />
    <rect
       style="fill:#fdf396;fill-opacity:1;stroke:#000100;stroke-width:1;stroke-linejoin:round;stroke-miterlimit:4;stroke-opacity:1;stroke-dasharray:none"
       id="rect3876"
       width="48.790367"
       height="7.7781744"
       x="501.69226"
       y="205.98622" />
    <path
       sodipodi:type="arc"
       style="fill:#fdf396;fill-opacity:1;stroke:#000100;stroke-width:1;stroke-linejoin:round;stroke-miterlimit:4;stroke-opacity:1;stroke-dasharray:none"
       id="path3828"
       sodipodi:cx="535"
       sodipodi:cy="136.09448"
       sodipodi:rx="73"
       sodipodi:ry="63"
       d="m 462.07301,133.27747 a 73,63 0 1 1 -0.011,0.21971"
       sodipodi:start="3.1863221"
       sodipodi:end="9.4660166"
       transform="matrix(0.8929999,0,0,1.0553367,47.99584,1.9551901)"
       sodipodi:open="true" />
    <path
       sodipodi:type="arc"
       style="fill:#ffffff;fill-opacity:1;stroke:#000100;stroke-width:1;stroke-linejoin:round;stroke-miterlimit:4;stroke-opacity:1;stroke-dasharray:none"
       id="path3830"
       sodipodi:cx="492.5"
       sodipodi:cy="136.59448"
       sodipodi:rx="22.5"
       sodipodi:ry="20.5"
       d="m 470.0225,135.67783 a 22.5,20.5 0 1 1 -0.0101,0.23512"
       sodipodi:start="3.1863221"
       sodipodi:end="9.4580297"
       sodipodi:open="true"
       transform="translate(2.5,7)" />
    <path
       sodipodi:type="arc"
       style="fill:#000000;fill-opacity:1;stroke:#000100;stroke-width:1;stroke-linejoin:round;stroke-miterlimit:4;stroke-opacity:1;stroke-dasharray:none"
       id="path3832"
       sodipodi:cx="493"
       sodipodi:cy="138.59448"
       sodipodi:rx="12"
       sodipodi:ry="11.5"
       d="m 481.012,138.08027 a 12,11.5 0 1 1 -0.005,0.13189"
       sodipodi:start="3.1863221"
       sodipodi:end="9.4580297"
       sodipodi:open="true"
       transform="matrix(1.1616248,0,0,1.0816964,-75.181035,-5.8226666)" />
    <path
       transform="translate(61.499908,5.9999997)"
       sodipodi:type="arc"
       style="fill:#ffffff;fill-opacity:1;stroke:#000100;stroke-width:1;stroke-linejoin:round;stroke-miterlimit:4;stroke-opacity:1;stroke-dasharray:none"
       id="path3830-0"
       sodipodi:cx="492.5"
       sodipodi:cy="136.59448"
       sodipodi:rx="22.5"
       sodipodi:ry="20.5"
       d="m 470.0225,135.67783 a 22.5,20.5 0 1 1 -0.0101,0.23512"
       sodipodi:start="3.1863221"
       sodipodi:end="9.4580297"
       sodipodi:open="true" />
    <path
       transform="matrix(1.1820579,0,0,1.0812791,-30.504619,-5.764834)"
       sodipodi:type="arc"
       style="fill:#000000;fill-opacity:1;stroke:#000100;stroke-width:1;stroke-linejoin:round;stroke-miterlimit:4;stroke-opacity:1;stroke-dasharray:none"
       id="path3832-0"
       sodipodi:cx="493"
       sodipodi:cy="138.59448"
       sodipodi:rx="12"
       sodipodi:ry="11.5"
       d="m 481.012,138.08027 a 12,11.5 0 1 1 -0.005,0.13189"
       sodipodi:start="3.1863221"
       sodipodi:end="9.4580297"
       sodipodi:open="true" />
    <path
       style="fill:none;stroke:#000000;stroke-width:1px;stroke-linecap:butt;stroke-linejoin:miter;stroke-opacity:1"
       d="m 514.5,163.09448 c 7,7.4305 14,5.34365 21,-0.5 l -0.5,0"
       id="path3870"
       inkscape:connector-curvature="0"
       sodipodi:nodetypes="ccc" />
    <path
       style="fill:none;stroke:#000000;stroke-width:1px;stroke-linecap:butt;stroke-linejoin:miter;stroke-opacity:1"
       d="m 479,169.09448 c 29.9692,27.11688 58.03493,25.85627 96,1 l -0.5,-0.5"
       id="path3872"
       inkscape:connector-curvature="0"
       sodipodi:nodetypes="ccc" />
    <path
       style="fill:#ffff5d;fill-opacity:1;stroke:#000000;stroke-width:1px;stroke-linecap:butt;stroke-linejoin:miter;stroke-opacity:1"
       d="m 461.5,121.59448 c 17.27618,-64.403856 119.42403,-58.355205 128.5,1 l -4,10 -7.5,-15 -6.5,5.5 -8,-11.5 -8.5,7.5 -7.5,-8 -10,9 -3.5,-10.5 -9,13 -8.5,-12 -10.5,20.5 -4.5,-12 -3.5,10 -2,-4.5 -2,7.5 -6,-14 -7,15.5 -4.5,-14 -9.5,14.5 -3,-6.5 -5.5,10.5 z"
       id="path3874"
       inkscape:connector-curvature="0"
       sodipodi:nodetypes="cccccccccccccccccccccccc" />
    <path
       style="fill:#fd0b1f;fill-opacity:1;stroke:#000000;stroke-width:1px;stroke-linecap:butt;stroke-linejoin:miter;stroke-opacity:1"
       d="m 500.98515,213.05729 c -9.07454,0.77385 -18.14907,1.15568 -27.22361,3.18198 -26.71008,8.70593 -53.54595,17.16029 -73.76154,38.85521 -3.15187,12.75657 -4.1196,31.75353 2,71 l 30,-3 c -1.49403,-18.33333 -3.97929,-36.66667 -3,-55 l 44,-20 c -6.65872,41.80839 -5.57222,83.21743 -3,123.70711 l 114,0.29289 c -0.53749,-42.33333 -0.42102,-84.66667 -10,-127 40.17333,23.35238 63.74215,54.27941 95,84 l 20,-25 c -28.19731,-33.5476 -63.48255,-63.27863 -109,-87.5 -3.6841,-1.80703 -16.48552,-2.52588 -29.5,-3 z"
       id="path3878"
       inkscape:connector-curvature="0"
       sodipodi:nodetypes="ccccccccccccccc" />
    <path
       style="fill:#fdf396;fill-opacity:1;stroke:#000000;stroke-width:1px;stroke-linecap:butt;stroke-linejoin:miter;stroke-opacity:1"
       d="m 671.5,327.09448 4,14.5 c 2.88288,10.45043 12.00336,14.08838 14,12.5 l -6,-16.5 c 6.30621,3.5 12.50189,7 17.5,10.5 0,0 6.51999,13.85138 10.5,16 3.98001,2.14862 8,0 8,0 l -11.75,-20.25 -9.75,-11.75 12.5,11.75 c 0,0 11.34612,14.23858 14,14.25 2.65388,0.0114 4.5,-3 4.5,-3 -5.93459,-9.08256 -13.72843,-17.92124 -23,-27 0,0 18.92352,21.96148 20.5,22 1.57648,0.0385 2.5,-4.5 2.5,-4.5 l -19.5,-24 c 0,0 12.95429,14.443 14.5,14 1.54571,-0.443 2,-4 2,-4 -8.93169,-8.48862 -13.81456,-16.30243 -30,-26 -3.38608,-1.10548 -5.70481,-0.0763 -8.5,0 z"
       id="path3880"
       inkscape:connector-curvature="0"
       sodipodi:nodetypes="csccczcccczcczcczcccc" />
    <path
       style="fill:#fdf396;fill-opacity:1;stroke:#000000;stroke-width:1px;stroke-linecap:butt;stroke-linejoin:miter;stroke-opacity:1"
       d="m 430.41658,322.19591 12.34496,14.58362 c 5.87955,6.94576 -4.3751,14.24592 -6.74726,15.18526 l -2.47547,-14.13233 c -0.10866,7.21155 1.95908,12.20596 2.50237,18.28345 0,0 3.80917,1.57391 3.6883,5.05648 -0.12087,3.48257 -4.34071,4.63751 -4.34071,4.63751 -3.79493,0.40714 -6.03196,3.80466 -9.93182,-2.95506 l -3.9131,-15.19278 3.95672,16.69302 c 0,0 2.44664,0.6695 1.13386,2.97597 -1.31279,2.30646 -7.84884,1.87577 -7.84884,1.87577 -4.91635,-9.6717 -1.44678,-4.03995 -4.6967,-16.60274 0,0 3.5977,13.56266 2.84538,14.94859 -0.75233,1.38591 -4.0866,0.6317 -4.0866,0.6317 l -6.13834,-15.78553 c 0,0 6.41855,13.47929 5.26412,14.59856 -1.15443,1.11926 -4.81814,0.80098 -4.81814,0.80098 -2.9077,-11.97402 -7.24828,-16.2125 -7.58884,-35.07769 0.72921,-3.48653 2.7771,-4.98381 4.23636,-7.36907 z"
       id="path3880-0"
       inkscape:connector-curvature="0"
       sodipodi:nodetypes="csccczcccczcczcczcccc" />
    <path
       style="fill:#be8206;fill-opacity:1;stroke:#000000;stroke-width:1px;stroke-linecap:butt;stroke-linejoin:miter;stroke-opacity:1"
       d="m 555.48689,532.31512 c -4.66528,-0.2934 -4.50653,10.02603 -4.59619,19.79899 22.86312,0.93963 50.32242,1.51903 73.18554,-0.35355 4.99432,-10.08882 -9.04631,-19.31285 -31.11269,-22.98097 z"
       id="path3910-0"
       inkscape:connector-curvature="0"
       sodipodi:nodetypes="ccccc" />
    <path
       style="fill:#4c5296;fill-opacity:1;stroke:#000000;stroke-width:1px;stroke-linecap:butt;stroke-linejoin:miter;stroke-opacity:1"
       d="m 476.5,372.24093 -5.56066,160.08579 c 19.57597,-1.59057 25.71692,9.02933 47.06066,8.36396 l 6,-146.44975 8.5,1 19.5,68.5 -0.35355,71.41421 c 16.96683,3.16694 23.88856,-6.6367 44.35355,-5.18198 l -2,-82.23223 -18.41508,-75.23106 z"
       id="path3900"
       inkscape:connector-curvature="0"
       sodipodi:nodetypes="ccccccccccc" />
    <path
       style="fill:none;stroke:#000000;stroke-width:1px;stroke-linecap:butt;stroke-linejoin:miter;stroke-opacity:1"
       d="m 482,388.59448 c 7.22751,-2.36764 14.32798,-2.57574 22,-12.5"
       id="path3902"
       inkscape:connector-curvature="0"
       sodipodi:nodetypes="cc" />
    <path
       style="fill:none;stroke:#000000;stroke-width:1px;stroke-linecap:butt;stroke-linejoin:miter;stroke-opacity:1"
       d="m 545.5,376.59448 c 7.23154,9.39488 16.98464,10.38454 27,10.5"
       id="path3904"
       inkscape:connector-curvature="0"
       sodipodi:nodetypes="cc" />
    <path
       style="fill:none;stroke:#000000;stroke-width:1px;stroke-linecap:butt;stroke-linejoin:miter;stroke-opacity:1"
       d="m 530.68364,372.15632 0.70711,19.09188"
       id="path3906"
       inkscape:connector-curvature="0" />
    <path
       style="fill:none;stroke:#000000;stroke-width:1px;stroke-linecap:butt;stroke-linejoin:miter;stroke-opacity:1"
       d="m 518.75,393.84448 19.5,2.5"
       id="path3908"
       inkscape:connector-curvature="0" />
  </g>
</svg>
