<?xml version="1.0" encoding="UTF-8" standalone="no"?>
<!-- Created with Inkscape (http://www.inkscape.org/) -->

<svg
   xmlns:dc="http://purl.org/dc/elements/1.1/"
   xmlns:cc="http://creativecommons.org/ns#"
   xmlns:rdf="http://www.w3.org/1999/02/22-rdf-syntax-ns#"
   xmlns:svg="http://www.w3.org/2000/svg"
   xmlns="http://www.w3.org/2000/svg"
   xmlns:sodipodi="http://sodipodi.sourceforge.net/DTD/sodipodi-0.dtd"
   xmlns:inkscape="http://www.inkscape.org/namespaces/inkscape"
   width="500"
   height="150"
   id="svg3027"
   version="1.1"
   inkscape:version="0.48.2 r9819"
   inkscape:export-filename="/home/alfem/alfem/prog/gamespit/games/mad-body/images/head1.png"
   inkscape:export-xdpi="90"
   inkscape:export-ydpi="90"
   sodipodi:docname="head1.svg">
  <defs
     id="defs3029" />
  <sodipodi:namedview
     id="base"
     pagecolor="#ffffff"
     bordercolor="#666666"
     borderopacity="1.0"
     inkscape:pageopacity="0.0"
     inkscape:pageshadow="2"
     inkscape:zoom="1.979899"
     inkscape:cx="245.19667"
     inkscape:cy="58.693488"
     inkscape:document-units="px"
     inkscape:current-layer="layer1"
     showgrid="false"
     inkscape:window-width="1366"
     inkscape:window-height="714"
     inkscape:window-x="0"
     inkscape:window-y="0"
     inkscape:window-maximized="1" />
  <metadata
     id="metadata3032">
    <rdf:RDF>
      <cc:Work
         rdf:about="">
        <dc:format>image/svg+xml</dc:format>
        <dc:type
           rdf:resource="http://purl.org/dc/dcmitype/StillImage" />
        <dc:title></dc:title>
      </cc:Work>
    </rdf:RDF>
  </metadata>
  <g
     inkscape:label="Capa 1"
     inkscape:groupmode="layer"
     id="layer1"
     transform="translate(0,-902.36218)">
    <rect
       style="fill:#fdf396;fill-opacity:1;stroke:#000100;stroke-width:2.006006;stroke-linejoin:round;stroke-miterlimit:4;stroke-opacity:1;stroke-dasharray:none"
       id="rect3876"
       width="48.790367"
       height="7.7781744"
       x="225.60481"
       y="1044.9523" />
    <path
       sodipodi:type="arc"
       style="fill:#fdf396;fill-opacity:1;stroke:#000100;stroke-width:2.54309434;stroke-linejoin:round;stroke-miterlimit:4;stroke-opacity:1;stroke-dasharray:none"
       id="path3828"
       sodipodi:cx="535"
       sodipodi:cy="136.09448"
       sodipodi:rx="73"
       sodipodi:ry="63"
       d="m 462.07301,133.27747 a 73,63 0 1 1 -0.011,0.21971"
       sodipodi:start="3.1863221"
       sodipodi:end="9.4660166"
       transform="matrix(0.8929999,0,0,1.0553367,-227.75504,840.92117)"
       sodipodi:open="true" />
    <path
       sodipodi:type="arc"
       style="fill:#ffffff;fill-opacity:1;stroke:#000100;stroke-width:2.006006;stroke-linejoin:round;stroke-miterlimit:4;stroke-opacity:1;stroke-dasharray:none"
       id="path3830"
       sodipodi:cx="492.5"
       sodipodi:cy="136.59448"
       sodipodi:rx="22.5"
       sodipodi:ry="20.5"
       d="m 470.0225,135.67783 a 22.5,20.5 0 1 1 -0.0101,0.23512"
       sodipodi:start="3.1863221"
       sodipodi:end="9.4580297"
       sodipodi:open="true"
       transform="translate(-267.7539,844.95582)" />
    <path
       sodipodi:type="arc"
       style="fill:#000000;fill-opacity:1;stroke:#000100;stroke-width:0.80472445;stroke-linejoin:round;stroke-miterlimit:4;stroke-opacity:1;stroke-dasharray:none"
       id="path3832"
       sodipodi:cx="493"
       sodipodi:cy="138.59448"
       sodipodi:rx="12"
       sodipodi:ry="11.5"
       d="m 481.012,138.08027 a 12,11.5 0 1 1 -0.005,0.13189"
       sodipodi:start="3.1863221"
       sodipodi:end="9.4580297"
       sodipodi:open="true"
       transform="matrix(1.1616248,0,0,1.0816964,-345.40951,834.65854)" />
    <path
       transform="translate(-216.7412,846.4812)"
       sodipodi:type="arc"
       style="fill:#ffffff;fill-opacity:1;stroke:#000100;stroke-width:2.006006;stroke-linejoin:round;stroke-miterlimit:4;stroke-opacity:1;stroke-dasharray:none"
       id="path3830-0"
       sodipodi:cx="492.5"
       sodipodi:cy="136.59448"
       sodipodi:rx="22.5"
       sodipodi:ry="20.5"
       d="m 470.0225,135.67783 a 22.5,20.5 0 1 1 -0.0101,0.23512"
       sodipodi:start="3.1863221"
       sodipodi:end="9.4580297"
       sodipodi:open="true" />
    <path
       transform="matrix(1.1820579,0,0,1.0812791,-306.49064,835.22144)"
       sodipodi:type="arc"
       style="fill:#000000;fill-opacity:1;stroke:#000100;stroke-width:0.75166798;stroke-linejoin:round;stroke-miterlimit:4;stroke-opacity:1;stroke-dasharray:none"
       id="path3832-0"
       sodipodi:cx="493"
       sodipodi:cy="138.59448"
       sodipodi:rx="12"
       sodipodi:ry="11.5"
       d="m 481.012,138.08027 a 12,11.5 0 1 1 -0.005,0.13189"
       sodipodi:start="3.1863221"
       sodipodi:end="9.4580297"
       sodipodi:open="true" />
    <path
       style="fill:none;stroke:#000000;stroke-width:2.6260004;stroke-linecap:butt;stroke-linejoin:miter;stroke-miterlimit:4;stroke-opacity:1;stroke-dasharray:none"
       d="m 239.5,1002.8522 c 7.62497,4.617 15.24994,6.7857 22.87491,-0.7866 l -0.54464,0"
       id="path3870"
       inkscape:connector-curvature="0"
       sodipodi:nodetypes="ccc" />
    <path
       sodipodi:type="arc"
       style="fill:#fdf396;fill-opacity:1;stroke:#000100;stroke-width:2;stroke-linejoin:round;stroke-miterlimit:4;stroke-opacity:1;stroke-dasharray:none"
       id="path5048"
       sodipodi:cx="138.64343"
       sodipodi:cy="65.399727"
       sodipodi:rx="15.404826"
       sodipodi:ry="12.374369"
       d="m 123.25401,64.846413 a 15.404826,12.374369 0 0 1 30.58501,-1.479302"
       transform="matrix(1.480865,0,0,-1.188055,19.012816,1066.5204)"
       sodipodi:start="3.1863221"
       sodipodi:end="6.1181774"
       sodipodi:open="true" />
    <path
       sodipodi:type="arc"
       style="fill:#fdf396;fill-opacity:1;stroke:#000100;stroke-width:2;stroke-linejoin:round;stroke-miterlimit:4;stroke-opacity:1;stroke-dasharray:none"
       id="path5048-0"
       sodipodi:cx="138.64343"
       sodipodi:cy="65.399727"
       sodipodi:rx="15.404826"
       sodipodi:ry="12.374369"
       d="m 123.25401,64.846413 a 15.404826,12.374369 0 0 1 30.58501,-1.479302"
       transform="matrix(-1.480865,0,0,-1.102603,482.45556,1061.7612)"
       sodipodi:start="3.1863221"
       sodipodi:end="6.1181774"
       sodipodi:open="true"
       inkscape:transform-center-x="-49.497474"
       inkscape:transform-center-y="1.9220704" />
    <path
       style="fill:#7f0406;fill-opacity:1;stroke:#000000;stroke-width:2.006006;stroke-linecap:butt;stroke-linejoin:miter;stroke-miterlimit:4;stroke-opacity:1;stroke-dasharray:none"
       d="m 182.45431,962.58077 c 17.27618,-64.40386 123.96972,-60.37552 133.04569,-1.02031 5.54248,36.35108 2.12298,58.13894 -2.98985,77.17514 L 304,956.56046 l -6.5,5.5 -8,-11.5 -8.5,7.5 -7.5,-8 -10,9 -3.5,-10.5 -9,13 -8.5,-12 -10.5,20.5 -4.5,-12 -3.5,10 -2,-4.5 -2,7.5 -6,-14 -7,15.5 -4.5,-14 -9.5,14.5 -3,-6.5 -2.46954,77.67514 c -4.22237,-23.965 -9.89312,-46.06781 -5.07615,-81.65483 z"
       id="path3874"
       inkscape:connector-curvature="0"
       sodipodi:nodetypes="cccccccccccccccccccccccc" />
    <path
       style="fill:#000000;fill-opacity:1;stroke:#000000;stroke-width:2;stroke-linecap:butt;stroke-linejoin:miter;stroke-miterlimit:4;stroke-opacity:1;stroke-dasharray:none"
       d="m 216.17264,1008.4205 c 28.79501,12.0402 29.56268,21.2086 66.16499,0.5051 -19.75074,30.8035 -48.39555,28.7472 -66.16499,-0.5051 z"
       id="path5046"
       inkscape:connector-curvature="0"
       sodipodi:nodetypes="ccc" />
  </g>
</svg>
